<?xml version="1.0" encoding="UTF-8"?>
<svg id="Layer_1" data-name="Layer 1" xmlns="http://www.w3.org/2000/svg" viewBox="0 0 25.592 27.203">
  <path d="m19.401,24.166c-.017.267-.017.534-.045.795-.136,1.269-1.207,2.233-2.533,2.233-4.748.011-9.497.011-14.245,0-1.411-.005-2.527-1.095-2.572-2.451-.006-.185-.006-.365-.006-.545V5.632c0-1.318.822-2.337,2.097-2.582.323-.06.663-.049,1.003-.076.011-.289,0-.577.045-.85C3.354.85,4.42.016,5.831.011c3.462.005,6.918.022,10.381-.011.561-.005.929.158,1.303.528,1.53,1.498,3.077,2.974,4.629,4.45.244.229.351.474.346.801-.011.866-.006,1.737-.006,2.62.232.022.442.027.652.06,1.19.18,1.955.877,2.312,1.939.357,1.046.04,1.977-.805,2.723-.629.556-1.275,1.095-1.932,1.623-.176.142-.232.294-.232.506.006,2.119.006,4.232,0,6.351-.006,1.274-.799,2.249-2.045,2.489-.323.065-.674.049-1.031.076Zm1.672-17.832h-4.272c-.601,0-.884-.272-.884-.85V1.384H5.893c-.096,0-.198,0-.295.005-.533.044-1.026.452-1.048.948-.017.387.057.779.079,1.171.006.131-.006.261-.023.387-.017.147-.074.294-.074.441v17.178c0,.822.448,1.269,1.303,1.269,4.669.005,9.338.005,14.007,0,.782,0,1.224-.436,1.23-1.182.006-1.727,0-3.459,0-5.185,0-.065-.017-.136-.028-.229-.091.076-.147.125-.204.174-1.213,1.024-2.414,2.053-3.638,3.061-.164.136-.408.245-.629.261-1.076.082-2.159.131-3.235.185-.623.033-.946-.343-.816-.942.215-.98.414-1.961.657-2.936.057-.223.198-.458.38-.61,2.215-1.895,4.425-3.802,6.692-5.648.623-.512.958-1.018.844-1.814-.079-.512-.023-1.035-.023-1.585Zm-3.088,17.805H5.955c-.244,0-.493,0-.731-.049-1.275-.245-2.102-1.231-2.102-2.511V4.39c-1.179-.185-1.717.463-1.717,1.378.023,6.22.011,12.434.011,18.654,0,.103-.006.207.006.31.034.507.38.931.873,1.057.17.044.351.049.527.049h13.769c.091,0,.176,0,.266-.005.533-.033.975-.387,1.071-.893.045-.245.034-.501.057-.801Zm-3.915-5.681c.714-.038,1.388-.071,2.062-.125.136-.011.283-.065.385-.153,1.535-1.285,3.06-2.571,4.59-3.862.34-.283.674-.572,1.02-.871-.612-.67-1.207-1.323-1.808-1.983-.057.044-.108.071-.153.109-1.83,1.547-3.66,3.094-5.49,4.64-.057.049-.136.104-.153.169-.147.681-.295,1.362-.453,2.075Zm9.117-5.909c.567-.436,1.15-.844.963-1.634-.13-.55-.499-.937-1.082-1.084-.754-.191-1.19.305-1.683.741.606.659,1.195,1.313,1.802,1.977Zm-5.836-10.169v2.571h2.652c-.878-.85-1.757-1.705-2.652-2.571Z"/>
</svg>